<svg width="24" height="24" viewBox="0 0 24 24" fill="none" xmlns="http://www.w3.org/2000/svg">
<circle cx="12" cy="12" r="11.5" stroke="#E1E1E1"/>
<path d="M6 14.0002C6 15.8032 7.555 17.6532 10.222 17.9572C9.93497 17.6029 9.69312 17.2142 9.502 16.8002C7.882 16.3332 7 15.1282 7 14.0002V13.5002C7 13.3676 7.05268 13.2404 7.14645 13.1466C7.24021 13.0529 7.36739 13.0002 7.5 13.0002H9.207C9.306 12.6512 9.437 12.3172 9.6 12.0002H7.5C7.10218 12.0002 6.72064 12.1582 6.43934 12.4395C6.15804 12.7208 6 13.1024 6 13.5002V14.0002ZM13.75 8.2502C13.75 8.5352 13.707 8.8102 13.626 9.0702C13.148 9.1462 12.6823 9.28542 12.241 9.4842C12.5382 9.18437 12.7171 8.7872 12.7445 8.36591C12.772 7.94461 12.6462 7.5276 12.3904 7.19174C12.1345 6.85588 11.7659 6.62383 11.3525 6.53837C10.939 6.4529 10.5086 6.51978 10.1406 6.72668C9.77259 6.93358 9.49177 7.26655 9.34993 7.6642C9.20809 8.06185 9.21479 8.49737 9.36879 8.89047C9.52279 9.28357 9.81371 9.60775 10.1879 9.80323C10.5621 9.99872 10.9944 10.0523 11.405 9.9542C11.0051 10.2266 10.6427 10.5504 10.327 10.9172C9.82736 10.7913 9.37311 10.5277 9.01599 10.1563C8.65886 9.78487 8.41322 9.32063 8.30705 8.81644C8.20087 8.31225 8.23842 7.78838 8.41542 7.30449C8.59242 6.8206 8.90176 6.39614 9.30821 6.07946C9.71465 5.76279 10.2019 5.56662 10.7143 5.5133C11.2268 5.45999 11.744 5.55167 12.2069 5.7779C12.6698 6.00414 13.0599 6.35583 13.3327 6.79293C13.6055 7.23002 13.7501 7.73495 13.75 8.2502ZM19 14.5002C19 15.0911 18.8836 15.6763 18.6575 16.2223C18.4313 16.7682 18.0998 17.2643 17.682 17.6822C17.2641 18.1 16.768 18.4315 16.2221 18.6577C15.6761 18.8838 15.0909 19.0002 14.5 19.0002C13.9091 19.0002 13.3239 18.8838 12.7779 18.6577C12.232 18.4315 11.7359 18.1 11.318 17.6822C10.9002 17.2643 10.5687 16.7682 10.3425 16.2223C10.1164 15.6763 10 15.0911 10 14.5002C10 13.3067 10.4741 12.1621 11.318 11.3182C12.1619 10.4743 13.3065 10.0002 14.5 10.0002C15.6935 10.0002 16.8381 10.4743 17.682 11.3182C18.5259 12.1621 19 13.3067 19 14.5002ZM16.853 14.8542L16.856 14.8512C16.9476 14.7585 16.9993 14.6336 17 14.5032V14.4972C16.9992 14.3659 16.9467 14.2402 16.854 14.1472L14.854 12.1472C14.7602 12.0533 14.633 12.0005 14.5004 12.0004C14.3677 12.0003 14.2404 12.0529 14.1465 12.1467C14.0526 12.2405 13.9998 12.3677 13.9997 12.5003C13.9996 12.633 14.0522 12.7603 14.146 12.8542L15.293 14.0002H12.5C12.3674 14.0002 12.2402 14.0529 12.1464 14.1466C12.0527 14.2404 12 14.3676 12 14.5002C12 14.6328 12.0527 14.76 12.1464 14.8538C12.2402 14.9475 12.3674 15.0002 12.5 15.0002H15.293L14.146 16.1462C14.0521 16.2401 13.9994 16.3674 13.9994 16.5002C13.9994 16.633 14.0521 16.7603 14.146 16.8542C14.2399 16.9481 14.3672 17.0008 14.5 17.0008C14.6328 17.0008 14.7601 16.9481 14.854 16.8542L16.854 14.8542H16.853Z" fill="#252525"/>
</svg>
