<svg width="24" height="24" viewBox="0 0 24 24" fill="none" xmlns="http://www.w3.org/2000/svg">
<circle cx="12" cy="12" r="11.5" stroke="#E1E1E1"/>
<path fill-rule="evenodd" clip-rule="evenodd" d="M11.9974 4.6665C7.9474 4.6665 4.66406 7.94984 4.66406 11.9998C4.66406 16.0498 7.9474 19.3332 11.9974 19.3332C16.0474 19.3332 19.3307 16.0498 19.3307 11.9998C19.3307 7.94984 16.0474 4.6665 11.9974 4.6665ZM15.1761 10.7598C15.2346 10.6929 15.2792 10.615 15.3071 10.5306C15.3351 10.4462 15.3459 10.3571 15.3389 10.2685C15.3319 10.1799 15.3073 10.0935 15.2664 10.0146C15.2256 9.93563 15.1694 9.86564 15.1011 9.80873C15.0328 9.75182 14.9538 9.70915 14.8688 9.68321C14.7838 9.65728 14.6944 9.64861 14.606 9.65772C14.5176 9.66683 14.4318 9.69354 14.3539 9.73626C14.2759 9.77898 14.2073 9.83687 14.1521 9.9065L11.2854 13.3458L9.80206 11.8618C9.67633 11.7404 9.50793 11.6732 9.33313 11.6747C9.15833 11.6762 8.99112 11.7464 8.86752 11.87C8.74391 11.9936 8.6738 12.1608 8.67228 12.3356C8.67076 12.5104 8.73796 12.6788 8.8594 12.8045L10.8594 14.8045C10.9249 14.87 11.0033 14.9211 11.0897 14.9545C11.176 14.988 11.2684 15.0031 11.3609 14.9989C11.4534 14.9947 11.544 14.9713 11.627 14.9301C11.71 14.889 11.7834 14.831 11.8427 14.7598L15.1761 10.7598Z" fill="#252525"/>
</svg>
